<?xml version="1.0" encoding="utf-8"?>
<!-- Generator: Adobe Illustrator 23.0.1, SVG Export Plug-In . SVG Version: 6.00 Build 0)  -->
<svg version="1.1" id="Layer_1" xmlns="http://www.w3.org/2000/svg" xmlns:xlink="http://www.w3.org/1999/xlink" x="0px" y="0px"
	 viewBox="0 0 1100.22 388.31" style="enable-background:new 0 0 1100.22 388.31;" xml:space="preserve">
<style type="text/css">
	.st0{fill:#4F4F50;}
	.st1{fill:#FFFFFF;}
	.st2{fill:#E65425;}
	.st3{fill:#B24B26;}
	.st4{fill:#201927;}
	.st5{fill-rule:evenodd;clip-rule:evenodd;fill:#E65425;}
	.st6{fill:#4F4E4F;}
</style>
<g>
	<g>
		<path class="st0" d="M235.97,258.4c-12.36,12.52-32.3,12.55-72.05,12.62l-9.02,0.02c-4.11,0.01-8.03,0.02-11.76,0.02
			c-37.26,0-55.42-1.02-67.06-12.78c-11.71-11.81-11.49-29.39-11.1-61.29c0.07-5.17,0.13-10.78,0.16-16.85
			c0.04-8.48-0.08-16.16-0.19-22.93c-0.43-27.52-0.69-44.13,10.94-55.81c12.78-12.81,34.69-13.91,81.66-13.34l2.1,0.02
			c41.14,0.5,61.78,0.75,74.78,14.37c12.81,13.43,12.81,34.67,12.81,76.95l0.13,11.08C247.84,227.53,248.07,246.13,235.97,258.4z"/>
		<g>
			<path class="st1" d="M117.3,178.06c-0.22,1.06-0.69,2.03-1.38,2.9c-0.47,0.59-1.26,0.64-1.82,0.11
				c-0.64-0.61-1.08-1.31-1.41-2.11c-0.39-0.94-0.37-1.93-0.51-2.9c-0.06-0.44-0.01-0.89-0.01-1.26c-0.21-1.27,0.11-2.43,0.28-3.59
				c0.12-0.81,0.42-1.6,0.9-2.3c0.07-0.1,0.14-0.21,0.23-0.3c0.86-0.87,1.71-0.78,2.54,0.16c0.73,0.83,1.19,1.88,1.27,3.04
				c0.03,0.38,0.07,0.76,0.17,1.13c0.07,0.27,0.09,0.57,0.11,0.85C117.77,175.23,117.59,176.65,117.3,178.06z"/>
			<path class="st1" d="M119.26,186.93c0.15,0.52,0.33,1.04,0.26,1.58c0.04,0.47-0.13,0.89-0.22,1.33c-0.1,0.52-0.39,0.86-0.91,0.99
				c-0.27,0.07-0.51,0.26-0.82,0.09c-0.35-0.19-0.65-0.43-0.76-0.82c-0.13-0.46-0.22-0.93-0.29-1.4c-0.09-0.61,0.02-1.21,0.24-1.79
				c0.06-0.14,0.14-0.29,0.23-0.41c0.3-0.38,0.64-0.78,1.18-0.67C118.74,185.95,119.1,186.38,119.26,186.93z"/>
			<path class="st1" d="M185.97,188.94c0-0.39-0.15-0.75-0.32-1.09c-0.25-0.5-0.66-0.74-1.25-0.68c-0.66,0.07-1.02,0.49-1.23,1.05
				c-0.54,1.41-0.27,2.68,0.7,3.82c0.27,0.32,0.73,0.39,1.12,0.26c0.36-0.12,0.57-0.38,0.71-0.71c0.26-0.6,0.29-1.23,0.27-1.87
				C185.97,189.45,185.97,189.19,185.97,188.94z"/>
			<path class="st1" d="M182.25,173.61c-0.33-0.94-0.76-1.81-1.54-2.47c-0.18-0.15-0.36-0.25-0.59-0.28
				c-0.59-0.08-1.13-0.01-1.61,0.38c-0.26,0.2-0.47,0.43-0.64,0.7c-0.57,0.9-0.94,1.87-1.15,2.9c-0.28,1.37-0.6,2.75-0.21,4.16
				c0.04,0.15,0.05,0.31,0.06,0.47c0.01,1.15,0.45,2.17,0.95,3.16c0.25,0.48,0.54,0.93,0.96,1.3c0.68,0.6,1.46,0.64,2.16,0.09
				c0.65-0.51,1.05-1.2,1.33-1.94c0.58-1.51,0.69-3.09,0.72-4.58c-0.05-0.81-0.09-1.51-0.12-2.21
				C182.54,174.72,182.43,174.15,182.25,173.61z"/>
			<g>
				<path class="st1" d="M222.73,212.69c-0.33-1.28-1.11-2.2-2.24-2.86c-0.52-0.31-1.02-0.65-1.54-0.97
					c-0.3-0.19-0.44-0.46-0.46-0.79c-0.02-0.34-0.04-0.68-0.02-1.02c0-0.01,0-0.01,0-0.02v-0.01c0.01-0.19,0.03-0.38,0.07-0.57
					c0.11-0.61,0.21-1.22,0.26-1.84c0-0.04,0.01-0.08,0.01-0.12c0-0.02,0-0.03,0-0.05v-0.04c0.03-0.3,0.04-0.6,0.05-0.91
					c0-0.05,0-0.09,0-0.14c0-0.14,0.01-0.29,0.05-0.43c0.1-0.44,0.17-0.88,0.21-1.32c0-0.07,0.01-0.13,0.01-0.19
					c0.06-0.82,0.04-1.65,0.01-2.48c-0.02-0.87-0.22-1.71-0.59-2.5c-0.13-0.29-0.21-0.6-0.34-0.89c-0.12-0.29-0.23-0.6-0.41-0.85
					c-0.41-0.59-0.93-0.91-1.7-0.33c-0.74,0.56-1.47,1.12-2.17,1.72c-0.37,0.32-0.75,0.59-1.17,0.82c-1.8,0.98-3.67,1.8-5.62,2.41
					c-0.93,0.29-1.89,0.55-2.85,0.77c-0.68,0.16-1.34,0.38-2,0.62c-0.77,0.29-1.58,0.51-2.37,0.75c-0.46,0.14-0.92,0.27-1.39,0.36
					c-0.78,0.15-1.58,0.26-2.36,0.38c-0.22,0.03-0.44,0.06-0.66,0.1c-1.54,0.33-8.95,0.61-9.23,0.63c-1.15,0.07-2.31,0.15-3.47,0.22
					c0,0-2.98,0.19-5.43,0.33c-5.61,0.33-20.77,0.12-25.35,0.05c-16.99-0.23-18.98-0.13-20-0.06c-2.27,0.16-4.56,0.03-6.84,0.18
					c0,0-1.4,0.09-2.89-0.11c0,0,0,0-0.01,0c-1.12-0.15-1.08-0.31-2.01-0.42c-1.47-0.17-2.43,0.02-3.08,0.06h-0.09
					c-0.06,0.01-0.12,0.01-0.16,0c-0.2,0-0.4,0.01-0.61,0.02c-1.58,0.08-3.12-0.01-4.66-0.33c-0.22-0.05-0.44-0.07-0.66-0.1
					c-0.78-0.12-1.58-0.23-2.36-0.37c-0.47-0.09-0.93-0.22-1.39-0.36c-0.79-0.23-1.6-0.45-2.37-0.73c-0.66-0.24-1.32-0.46-2-0.61
					c-0.96-0.22-1.92-0.47-2.85-0.76c-1.95-0.6-3.82-1.41-5.63-2.38c-0.11-0.06-0.21-0.12-0.31-0.18c-0.1-0.06-0.2-0.13-0.3-0.2
					c-0.1-0.07-0.19-0.14-0.29-0.21c-0.09-0.07-0.19-0.15-0.28-0.23h0c-0.13-0.12-0.26-0.23-0.4-0.33c-0.13-0.11-0.27-0.22-0.4-0.33
					c-0.27-0.22-0.54-0.43-0.82-0.64c-0.19-0.14-0.37-0.28-0.55-0.42c-0.78-0.58-1.29-0.25-1.7,0.33c-0.18,0.25-0.29,0.57-0.41,0.86
					c-0.12,0.3-0.21,0.61-0.33,0.9c-0.37,0.8-0.57,1.63-0.58,2.5c-0.04,1.34-0.07,2.68,0.25,4c0.05,0.19,0.05,0.38,0.05,0.57
					c0.02,0.99,0.16,1.98,0.34,2.95c0.1,0.54,0.1,1.08,0.07,1.63c-0.02,0.33-0.16,0.61-0.46,0.79c-0.52,0.32-1.02,0.66-1.54,0.97
					c-1.13,0.66-1.9,1.59-2.23,2.87c-0.35,1.33-0.49,2.7-0.47,4.07c0.01,0.5,0.2,1,0.25,1.51c0.13,1.53,0.77,2.9,1.41,4.24
					c0.75,1.55,1.71,2.99,2.58,4.48c0.24,0.42,0.51,0.82,0.51,1.32c0.01,1.3,0.44,2.51,0.94,3.67c0.57,1.32,1.36,2.52,2.3,3.62
					c0.51,0.58,0.95,1.21,1.28,1.91l0.07,0.16c8.59,5.54,21.01,11.93,36.89,15.28c39.87,8.4,72.42-8.54,82.57-14.37
					c0.1-0.14,0.24-0.29,0.41-0.45c0.07-0.06,0.15-0.12,0.22-0.16c0.02-0.03,0.02-0.06,0.05-0.09c0.07-0.16,0.15-0.32,0.26-0.46
					c0.03-0.08,0.07-0.16,0.11-0.23c0.03-0.09,0.05-0.16,0.05-0.17l0.07-0.16c0.33-0.7,0.77-1.34,1.27-1.92
					c0.94-1.1,1.72-2.31,2.28-3.63c0.19-0.44,0.37-0.88,0.52-1.34c0.03-0.09,0.05-0.17,0.08-0.26c0,0,0,0,0-0.01
					c0.2-0.67,0.33-1.36,0.33-2.08c0-0.09,0.01-0.17,0.02-0.26v0c0,0,0,0,0-0.01c0.07-0.38,0.28-0.72,0.48-1.06
					c0.87-1.49,1.81-2.94,2.56-4.48c0.52-1.08,1.03-2.19,1.27-3.37c0-0.01,0-0.02,0-0.03c0.05-0.28,0.09-0.56,0.12-0.85
					c0-0.05,0.01-0.09,0.02-0.13c0,0,0-0.01,0-0.02c0-0.01,0-0.02,0-0.03c0,0,0,0,0-0.01c0-0.03,0.01-0.06,0.02-0.09
					c0.02-0.16,0.06-0.32,0.09-0.48c0-0.03,0.01-0.06,0.02-0.08v0c0.05-0.22,0.09-0.45,0.09-0.67
					C223.24,215.39,223.09,214.02,222.73,212.69z M138.56,209.68c0.2-0.65,0.62-1.17,1.27-1.45c0.71-0.31,1.45-0.48,2.22-0.54
					c0.51-0.04,1.02-0.06,1.53-0.06c1.4,0.01,2.81,0.01,4.21,0.06c1.5,0.06,2.98,0.3,4.45,0.59c0.48,0.09,0.94,0.35,1.37,0.64
					c0.21,0.14,0.38,0.35,0.67,0.32c0.05,0.33,0.29,0.5,0.55,0.65c-0.02,0.12,0.02,0.21,0.11,0.28c-0.04,0.2,0.06,0.37,0.12,0.54
					c0.29,0.85,0.21,1.67-0.19,2.47c-0.18,0.35-0.45,0.61-0.72,0.87c-0.14,0.13-0.31,0.24-0.29,0.46c-0.48,0.21-0.85,0.54-1.11,1
					c-0.22-0.04-0.35,0.11-0.51,0.21c-0.8,0.54-1.69,0.87-2.64,1.04c-0.53,0.09-1.06,0.21-1.6,0.27c-1.92,0.22-3.65-0.31-5.24-1.37
					c-0.68-0.46-1.37-0.92-2.01-1.45c-0.97-0.79-1.57-1.82-2.06-2.94C138.45,210.76,138.4,210.2,138.56,209.68z M166.92,224.58
					c0,0-1.5,1.5-3.79,2.77l-0.24,7.35c0,0,0-0.01,0-0.03c-0.04-0.4-0.78-4.5-14.78-6.48c-0.14-0.02-0.28-0.04-0.42-0.06
					c0,0-0.01,0-0.03-0.01c-0.54-0.13-8.16-1.9-14.73,0.92c0,0,0,0-0.01,0c-0.64,0.19-1.28,0.42-1.94,0.67l1.34-5.29
					c0,0-5.69-3.95-5.61-5.61c0,0,0.24-2.05,2.21,0.79c0,0,4.98,7.43,19.12,3.72c0,0,12.33,8.22,20.3-1.98
					C168.33,221.34,169.68,222.13,166.92,224.58z"/>
				<g>
					<path class="st2" d="M229.69,213.54c-0.14-2.17-0.26-4.34-0.4-6.51c-0.01-0.13-0.01-0.26-0.04-0.38
						c-0.18-0.78-0.16-1.59-0.19-2.38c-0.02-0.51-0.06-1.02-0.11-1.53c-0.06-0.73-0.14-1.46-0.15-2.19
						c-0.02-0.73-0.09-1.47-0.17-2.2c-0.12-1.2-0.37-2.4-0.25-3.62c0.02-0.22,0.01-0.45-0.04-0.67c-0.27-1.04-0.2-2.1-0.26-3.14
						c-0.02-0.42-0.07-0.83-0.14-1.24c-0.25-1.51-0.47-3.03-0.72-4.54c-0.4-2.43-0.97-4.82-1.45-7.23c-0.3-1.5-0.72-2.97-1.09-4.45
						c-0.5-1.95-1.03-3.89-1.51-5.84c-0.26-1.02-0.64-2.01-0.74-3.06c-0.01-0.13-0.06-0.25-0.16-0.33c0,0,0,0,0,0
						c0.72-3.8,1.3-7.99,1.6-12.53c0.14-2.1,0.21-4.13,0.23-6.08c0.07-7.14,0.27-12.91,0.32-22.97c0.01-2.54,0-2.23-0.02-2.23
						c-0.07-0.01-0.08-2.38-0.08-2.57c-0.02-1.91-1.04-5.5-3.46-7.49c-2.9-2.39-6.95-1.74-9.8-1.28c-1.83,0.29-3.88,0.93-7.95,2.33
						c-1.34,0.46-3.06,0.98-5.11,1.4c-3.13,0.64-5.54,0.75-7.17,0.82c-2.51,0.1-4.67,0.18-7.49-0.39c-0.18-0.04-0.35-0.07-0.52-0.11
						c-0.57-0.13-1.06-0.26-1.45-0.36l-0.36-0.25c0,0,0.01,0.02,0.02,0.05c-1.94-1.92-4.21-3.37-6.59-4.69
						c-1.29-0.71-2.64-1.3-4-1.83c-1.59-0.68-3.14-1.23-4.63-1.67c-0.02-0.01-0.05-0.02-0.08-0.02c-1.91-0.58-3.86-1-5.86-1.2
						c-0.02,0-0.03,0-0.05-0.01c-3.74-0.06-6.6-0.09-7.98-0.08c-0.33,0-0.92,0-1.71,0.05c-1.03,0.06-1.79,0.17-2.15,0.22
						c-3.7,0.52-4.27,0.39-6.67,0.89c-0.24,0.05-1.17,0.26-2.4,0.59c-3.02,0.79-5.87,1.97-8.55,3.52c0,0,0,0,0,0
						c-0.47,0.22-0.96,0.47-1.46,0.76c-1.51,0.87-2.73,1.86-3.67,2.76l-0.84,1.46c0,0,0.01,0.04,0.03,0.12
						c-0.01,0.02-0.02,0.05-0.04,0.07c-0.16,0.04-0.34,0.07-0.52,0.11c-2.82,0.57-4.99,0.49-7.49,0.39
						c-1.63-0.07-4.04-0.18-7.17-0.82c-2.05-0.42-3.77-0.94-5.11-1.4c-4.07-1.4-6.12-2.04-7.95-2.33c-2.85-0.45-6.89-1.11-9.8,1.28
						c-2.42,1.99-3.44,5.58-3.46,7.49c0,0.19-0.01,2.57-0.08,2.57c-0.02,0-0.03-0.31-0.02,2.23c0.05,10.07,0.25,15.84,0.32,22.97
						c0.02,1.95,0.09,3.97,0.23,6.08c0.31,4.54,0.88,8.73,1.6,12.53c0,0,0,0,0,0c-0.11,0.08-0.15,0.2-0.17,0.33
						c-0.1,1.06-0.48,2.05-0.74,3.06c-0.49,1.95-1.01,3.89-1.51,5.84c-0.38,1.48-0.8,2.95-1.09,4.45c-0.48,2.41-1.04,4.8-1.45,7.23
						c-0.25,1.51-0.47,3.03-0.72,4.54c-0.07,0.41-0.12,0.82-0.14,1.24c-0.07,1.05,0,2.11-0.26,3.14c-0.05,0.21-0.06,0.45-0.04,0.67
						c0.12,1.22-0.13,2.42-0.25,3.62c-0.08,0.73-0.16,1.46-0.17,2.2c-0.01,0.73-0.09,1.46-0.15,2.19c-0.05,0.51-0.09,1.02-0.11,1.53
						c-0.03,0.8-0.01,1.6-0.19,2.38c-0.03,0.12-0.03,0.25-0.04,0.38c-0.13,2.17-0.26,4.34-0.4,6.51c-0.05,0.8-0.16,1.59-0.17,2.38
						c-0.02,2.45,0.36,4.85,1.12,7.16c0.61,1.86,1.5,3.61,2.8,5.09c1.76,1.98,3.5,3.98,5.46,5.78c1.15,1.06,2.36,2.06,3.67,2.92
						c0.61,0.41,1.26,0.76,1.93,1.07c0.26,0.12,0.54,0.2,0.81,0.28c0.13,0.04,0.26-0.1,0.2-0.23l-0.07-0.16
						c-0.33-0.7-0.77-1.33-1.27-1.91c-0.94-1.1-1.72-2.3-2.29-3.62c-0.51-1.17-0.93-2.38-0.94-3.68c0-0.5-0.27-0.91-0.51-1.32
						c-0.87-1.49-1.82-2.93-2.57-4.48c-0.64-1.34-1.28-2.71-1.41-4.24c-0.05-0.51-0.24-1.01-0.24-1.51
						c-0.02-1.37,0.12-2.74,0.47-4.07c0.33-1.28,1.11-2.21,2.24-2.87c0.52-0.31,1.02-0.65,1.54-0.97c0.3-0.19,0.44-0.46,0.46-0.79
						c0.03-0.54,0.04-1.08-0.06-1.63c-0.19-0.97-0.31-1.96-0.34-2.95c0-0.19,0-0.39-0.05-0.57c-0.31-1.32-0.28-2.66-0.24-4
						c0.02-0.87,0.22-1.71,0.59-2.5c0.13-0.29,0.21-0.6,0.34-0.9c0.12-0.29,0.23-0.6,0.41-0.85c0.41-0.59,0.93-0.91,1.7-0.33
						c0.19,0.14,0.37,0.28,0.55,0.42c0.28,0.21,0.55,0.42,0.82,0.64c0.14,0.11,0.27,0.21,0.4,0.33c0.13,0.11,0.26,0.22,0.4,0.33h0
						c0.09,0.09,0.18,0.16,0.28,0.23c0.09,0.07,0.19,0.14,0.29,0.21c0.1,0.07,0.2,0.14,0.3,0.2c0.1,0.07,0.2,0.12,0.3,0.18
						c1.8,0.97,3.67,1.79,5.62,2.4c0.93,0.29,1.89,0.54,2.85,0.77c0.68,0.16,1.34,0.38,2,0.62c0.77,0.29,1.58,0.5,2.37,0.74
						c0.46,0.14,0.92,0.27,1.39,0.36c0.78,0.14,1.58,0.25,2.36,0.38c0.22,0.03,0.45,0.06,0.66,0.1c1.54,0.33,3.09,0.42,4.66,0.34
						c0.2-0.01,0.4-0.01,0.61-0.02c0.05,0.01,0.11,0.01,0.16,0h0.09c0.95,0,1.91,0.08,2.85,0.2c0.28,0.03,0.57,0.07,0.85,0.09
						c0.46,0.03,0.93,0.06,1.39,0.09h0c1.48,0.2,2.88,0.12,2.88,0.12c2.28-0.14,4.57-0.01,6.84-0.16c1.03-0.07,3.02-0.16,20,0.11
						c4.59,0.07,19.74,0.32,25.35,0.01c2.45-0.14,5.43-0.32,5.43-0.32c1.15-0.07,2.31-0.14,3.47-0.21c0.28-0.02,7.7-0.28,9.23-0.61
						c0.22-0.05,0.44-0.07,0.66-0.1c0.78-0.12,1.58-0.23,2.36-0.38c0.47-0.09,0.93-0.22,1.39-0.36c0.79-0.24,1.6-0.45,2.37-0.74
						c0.66-0.24,1.32-0.46,2-0.62c0.96-0.22,1.92-0.48,2.85-0.77c1.95-0.61,3.82-1.43,5.62-2.4c0.42-0.23,0.81-0.5,1.18-0.82
						c0.7-0.6,1.44-1.16,2.17-1.72c0.78-0.58,1.29-0.26,1.7,0.33c0.18,0.25,0.29,0.56,0.41,0.85c0.12,0.3,0.21,0.61,0.34,0.89
						c0.37,0.8,0.57,1.63,0.59,2.5c0.02,0.73,0.04,1.46,0,2.19c0,0.07-0.01,0.13-0.01,0.19c-0.03,0.54-0.1,1.08-0.23,1.61
						c-0.01,0.05-0.02,0.09-0.02,0.14c-0.02,0.14-0.02,0.29-0.02,0.43c0,0.21-0.02,0.42-0.03,0.62v0.04c0,0.02,0,0.03,0,0.05
						c0,0.04-0.01,0.08-0.01,0.12c-0.05,0.71-0.16,1.42-0.29,2.12c-0.02,0.09-0.03,0.19-0.04,0.28v0.01c0,0.01,0,0.01,0,0.02
						c-0.05,0.43-0.05,0.87-0.02,1.31c0.02,0.33,0.16,0.61,0.46,0.79c0.52,0.32,1.02,0.66,1.54,0.97c1.13,0.66,1.9,1.59,2.24,2.87
						c0.35,1.33,0.49,2.7,0.47,4.07c0,0.12-0.02,0.25-0.04,0.37v0c0,0.03-0.01,0.05-0.02,0.08c-0.02,0.16-0.06,0.32-0.09,0.48
						c-0.01,0.03-0.01,0.06-0.02,0.09c0,0,0,0,0,0.01c0,0.01,0,0.02,0,0.03c0,0,0,0.01,0,0.02c-0.03,0.14-0.06,0.28-0.07,0.43
						c-0.02,0.19-0.04,0.37-0.07,0.55c0,0.01,0,0.02,0,0.03c-0.22,1.3-0.78,2.5-1.34,3.67c-0.75,1.55-1.7,2.99-2.57,4.48
						c-0.15,0.25-0.31,0.5-0.4,0.77c0,0,0,0,0,0.01v0c-0.06,0.17-0.1,0.35-0.1,0.54c0,0.61-0.1,1.21-0.26,1.79c0,0,0,0,0,0.01
						c-0.02,0.09-0.05,0.17-0.08,0.26c-0.16,0.55-0.37,1.09-0.6,1.62c-0.57,1.32-1.35,2.52-2.29,3.62c-0.5,0.58-0.94,1.21-1.27,1.91
						l-0.07,0.16c-0.05,0.13,0.07,0.27,0.2,0.23c0.27-0.08,0.55-0.17,0.81-0.28c0.67-0.31,1.31-0.66,1.93-1.07
						c1.31-0.86,2.51-1.86,3.67-2.92c1.96-1.79,3.7-3.8,5.46-5.78c1.31-1.47,2.19-3.23,2.8-5.09c0.76-2.32,1.14-4.72,1.12-7.16
						C229.85,215.12,229.73,214.33,229.69,213.54z M202.93,113.74c3.6-1.57,6.92-2.55,9.71-3.19c1.69-0.42,4.73-0.85,6.94,0.82
						c2.25,1.71,2.57,4.8,3.04,9.31c0.17,1.64,0.12,3.3,0.17,6.55c0.09,5.47,0.05,10.8-0.09,15.97c-0.03,1.7-0.08,3.43-0.15,5.19
						c-0.11,2.83-0.28,5.58-0.48,8.25c-0.12,0.94-0.23,1.88-0.34,2.82c-1.19-4.38-2.94-9.35-5.54-14.58
						c-6.43-12.95-15.11-21.6-21.35-26.77C197.02,116.68,199.73,115.14,202.93,113.74z M189.25,169.26
						c0.69,0.62,1.23,1.23,1.64,1.77c0.14,0.18,0.33,0.45,0.58,0.78c0.97,1.31,1.46,1.96,1.72,2.38c0.45,0.71,0.88,1.37,1.23,2.37
						c0.33,0.92,0.45,1.74,0.5,2.31c0.05,0.49,0.05,0.91,0.04,1.23v0.46c0,0.28,0,0.56-0.01,0.84c-0.03,0.19-0.08,0.38-0.08,0.57
						c-0.04,1.57-0.36,3.1-0.75,4.6c-0.27,1.04-0.73,2.03-1.16,3.03c-0.13,0.31-0.48,0.94-1.02,1.71c-0.17,0.24-0.32,0.43-0.46,0.61
						c-1.15,1.47-1.8,2.29-2.85,3.07c-0.18,0.14-0.36,0.26-0.56,0.38c-0.18,0.11-0.68,0.42-1.27,0.64c-0.4,0.15-1.13,0.37-2.12,0.36
						c-0.48,0-1.18-0.02-2.03-0.07c-1.01-0.06-1.51-0.14-1.99-0.2c-0.93-0.13-1.81-0.57-2.57-1.18c-0.55-0.44-1.04-0.94-1.5-1.47
						c-0.61-0.71-1.06-1.51-1.4-2.37c-0.76-1.91-1.15-3.89-1.22-5.95c-0.02-0.54-0.11-1.08-0.12-1.62
						c-0.01-1.91-0.04-3.82,0.02-5.73c0.04-1.17,0.23-2.34,0.51-3.49c0.02-0.07,0.08-0.35,0.17-0.74c0.42-1.73,0.69-2.87,1.31-3.98
						c0.28-0.51,0.75-1.22,1.53-1.95c0,0,2.09-0.93,2.94-1.18c0.18-0.05,0.36-0.14,0.54-0.15c0.92-0.06,1.84-0.09,2.76-0.02
						c0.27,0.02,0.55,0.14,0.55,0.14s0.31,0.09,0.63,0.2c1.2,0.43,2.21,1.01,2.21,1.01C188.01,168.22,188.75,168.81,189.25,169.26z
						 M184.75,151.9c0.19,0.01,0.38,0.01,0.57,0.03c0.32,0.04,0.55,0.24,0.6,0.54c0.11,0.6,0.14,1.2,0.07,1.81
						c-0.04,0.3-0.21,0.45-0.52,0.47c-0.22,0.02-0.45,0.01-0.67,0.01h-3.16v-0.03c-0.86,0-1.72,0-2.59,0
						c-1.55-0.01-3.04,0.34-4.48,0.87c-1.04,0.38-2.09,0.75-3.1,1.22c-0.76,0.35-1.45,0.81-2.11,1.3c-1.18,0.87-2.26,1.87-3.22,2.98
						c-0.68,0.8-1.35,1.6-1.93,2.49c-0.47,0.72-1.04,1.37-1.52,2.08c-0.92,1.37-1.81,2.77-2.72,4.15c-0.14,0.21-0.26,0.44-0.36,0.68
						c-0.31,0.73-0.71,1.43-1.03,2.15c-0.57,1.27-1.1,2.58-1.22,3.99c0,0.07-0.3,1.75-0.35,2.54c-0.04,0.57-0.16,1.14-0.16,1.71
						c-0.02,1.95-0.06,3.9-0.01,5.84c0.03,1.14,0.22,2.28,0.32,3.42c0.05,0.57,0.08,1.15,0.07,1.72c-0.01,0.57-0.59,0.87-1.11,0.61
						c-0.15-0.07-0.25-0.2-0.28-0.37c-0.12-0.78-0.3-1.57-0.34-2.36c-0.08-1.37-0.14-2.74-0.21-4.11c-0.09-2.13-0.21-4.28,0.1-6.41
						c0-0.03,0.01-0.07,0.01-0.09c0.02-1.06,0.19-2.09,0.34-3.13c0.18-1.21,0.52-2.37,0.87-3.52c0.48-1.55,1.21-2.99,2.16-4.32
						c0.72-1.01,1.34-2.09,2.07-3.1c0.46-0.64,2.45-3.6,3.06-4.37c1.15-1.44,2.38-2.83,3.79-4.03c0.46-0.4,0.94-0.76,1.47-1.05
						c0.95-0.51,1.88-1.06,2.8-1.64c0.82-0.52,1.73-0.83,2.64-1.07c0.61-0.16,1.2-0.4,1.83-0.52c0.88-0.19,1.78-0.18,2.66-0.31
						C180.98,151.81,182.86,151.83,184.75,151.9z M116.92,150.25c0.02-0.38,0.32-0.56,0.64-0.62c0.56-0.11,1.13-0.24,1.7-0.25
						c1.57-0.03,3.13-0.02,4.7,0c0.47,0.01,0.95,0.1,1.42,0.19c0.69,0.12,1.37,0.28,2.07,0.39c0.3,0.05,3.53,1.51,4.71,2.45
						c1.32,1.05,2.64,2.11,3.75,3.39c0.52,0.6,1.02,1.22,1.52,1.84c0.78,0.98,1.37,2.07,2.04,3.11c0.29,0.45,0.45,0.98,0.67,1.47
						c0.52,1.16,1.01,2.35,1.4,3.56c0.22,0.7,0.49,1.37,0.69,2.07c0.13,0.46,0.38,0.86,0.51,1.33c0.35,1.25,0.49,2.5,0.53,3.78
						c0.02,0.6,0.11,1.2,0.21,1.8c0.12,0.73,0.1,1.46,0.16,2.19c0.27,3.09,0.23,6.19,0.22,9.28c0,0.48-0.02,0.96-0.12,1.43
						c-0.07,0.37-0.06,0.76-0.07,1.15c-0.02,0.67-0.04,1.34-0.05,2.01c0,0.4-0.11,0.75-0.33,1.08c-0.16,0.24-0.38,0.33-0.66,0.26
						c-0.25-0.06-0.39-0.23-0.42-0.47c-0.03-0.22-0.03-0.45-0.03-0.67c0-2.17,0-4.35,0-6.52c0,0,0,0,0.01,0
						c0.17-2.52,0.12-4.7-0.01-6.42c0,0-0.2-2.77-0.75-5.56c-0.09-0.47-0.18-0.84-0.18-0.84c-0.1-0.53-0.19-1.06-0.42-1.56
						c-0.16-0.34-0.24-0.73-0.28-1.11c-0.11-0.86-0.47-1.64-0.72-2.46c-0.29-0.99-0.74-1.91-1.16-2.83
						c-0.76-1.67-1.63-3.3-2.85-4.72c-0.58-0.68-1.19-1.33-1.75-2.03c-0.53-0.64-1.19-1.15-1.87-1.63
						c-0.63-0.44-1.28-0.85-1.92-1.25c-0.16-0.1-1.51-0.65-1.99-0.89c-0.37-0.19-0.73-0.4-1.11-0.57c-0.49-0.23-1.01-0.36-1.57-0.37
						c-0.7-0.01-4.14-0.02-4.97,0.01c-0.67,0.02-1.34,0-2,0.16c-0.3,0.07-0.64,0.05-0.95,0.03c-0.43-0.02-0.73-0.28-0.77-0.71
						C116.87,151.28,116.89,150.76,116.92,150.25z M121.47,166.46c0.77,0.4,1.31,0.97,1.8,1.66c0.67,0.94,0.93,1.85,1.12,2.52
						c0.12,0.42,0.17,0.72,0.27,1.32c0.09,0.55,0.28,1.62,0.38,2.98c0.18,2.35-0.01,4.29-0.02,4.89c-0.02,0.73-0.56,4.3-0.56,4.65
						c-0.01,0.45-0.02,0.89-0.14,1.33c-0.28,1.04-0.39,2.13-0.76,3.15c-0.07,0.21-1.35,3.52-1.42,3.69
						c-0.51,1.16-1.43,1.92-2.52,2.47c-0.5,0.26-1.03,0.47-1.6,0.55c-0.1,0.01-0.77,0.18-1.45,0.22c-1.9,0.11-3.49-0.72-4.12-1.04
						c-1.35-0.7-2.17-1.52-2.39-1.74c-0.57-0.59-0.93-1.08-1.21-1.59c-0.31-0.55-1.06-1.66-1.49-3.18
						c-0.16-0.55-0.31-1.27-0.42-1.81c-0.09-0.42-0.15-0.73-0.21-1.06c0,0-0.22-2.06-0.22-4.29c0-0.26,0.02-0.52,0.03-0.78
						c0-0.14,0-0.24,0-0.27c0-1.41,0-2.19,0.16-3.07c0.06-0.3,0.12-0.51,0.18-0.73c0.75-2.71,2.39-5.19,2.39-5.19
						c0.57-0.86,1.4-1.97,2.57-3.13c1.23-1.06,2.71-1.7,4.24-2.13C117.92,165.36,119.74,165.56,121.47,166.46z M91.08,145.71
						c-2.59,5.23-4.34,10.2-5.54,14.58c-0.12-0.94-0.23-1.88-0.34-2.82c-0.21-2.67-0.37-5.42-0.48-8.25
						c-0.07-1.76-0.12-3.49-0.15-5.19c-0.14-5.16-0.19-10.49-0.09-15.96c0.05-3.25,0-4.91,0.16-6.55c0.47-4.52,0.78-7.61,3.04-9.31
						c2.21-1.68,5.25-1.24,6.94-0.82c2.79,0.64,6.11,1.62,9.71,3.19c3.2,1.39,5.91,2.94,8.11,4.37
						C106.19,124.11,97.5,132.76,91.08,145.71z"/>
					<path class="st3" d="M180.87,120.69c-2.98,2.26-9,1.12-9,1.12c-5.4-2.49-8.75-0.55-8.75-0.55c-12.76,1.65-19.6-0.92-19.6-0.92
						c-3.34-3.09-7.51-1.18-7.51-1.18c-6.84,1.44-9.05-0.57-9.05-0.57c-1.52-1.56-2.38-4.53-2.54-5.15
						c-0.02-0.07-0.03-0.12-0.03-0.12l0.84-1.46c5.04,2.87,12.94-2.25,12.94-2.25c12.68,4.73,28.67,1.3,28.67,1.3
						c5.82,2.93,11.78,3.7,11.78,3.7c3.49,0.86,2.56-1.7,2.4-2.06c-0.01-0.03-0.02-0.05-0.02-0.05l0.36,0.25l0.8,0.56
						C184.16,117.98,180.87,120.69,180.87,120.69z"/>
					<path class="st2" d="M122.74,110.65"/>
				</g>
			</g>
			<path class="st4" d="M147.65,228.12c-0.16-0.02-0.32-0.05-0.49-0.07c0,0-5.93-1.64-14.25,0.98
				C139.49,226.22,147.11,227.99,147.65,228.12z"/>
			<path class="st4" d="M162.88,234.67c-0.07-0.38-1.14-4.44-14.78-6.48C162.11,230.17,162.84,234.27,162.88,234.67z"/>
			<path class="st2" d="M159.11,239.46c-9.54,5.17-22.52-1.15-22.52-1.15c-7.44-2.4-5.63-8.27-5.63-8.27c0.63-0.38,1.28-0.71,1.94-1
				c0,0,0.01,0,0.01,0c6.57-2.82,14.19-1.05,14.73-0.92c0.02,0,0.03,0.01,0.03,0.01c0.14,0.02,0.28,0.04,0.42,0.06
				c14.01,1.98,14.75,6.08,14.78,6.48c0,0.02,0,0.03,0,0.03C163.06,237.32,159.11,239.46,159.11,239.46z"/>
			<path class="st1" d="M222.68,143.21c-0.03,1.7-0.08,3.43-0.15,5.19c-0.11,2.83-0.28,5.58-0.48,8.25
				c-0.12,0.94-0.23,1.88-0.34,2.82c-1.19-4.38-2.94-9.35-5.54-14.58c-6.43-12.95-15.11-21.6-21.35-26.77
				c2.2-1.44,4.9-2.98,8.1-4.37c3.6-1.57,6.92-2.55,9.71-3.19c1.69-0.42,4.73-0.85,6.94,0.82c2.25,1.71,2.57,4.8,3.04,9.31
				c0.17,1.64,0.12,3.3,0.17,6.55C222.87,132.72,222.83,138.05,222.68,143.21z"/>
			<path class="st1" d="M112.44,118.94c-6.25,5.17-14.93,13.82-21.36,26.77c-2.59,5.23-4.34,10.2-5.54,14.58
				c-0.12-0.94-0.23-1.88-0.34-2.82c-0.21-2.67-0.37-5.42-0.48-8.25c-0.07-1.76-0.12-3.49-0.15-5.19
				c-0.14-5.16-0.19-10.49-0.09-15.96c0.05-3.25,0-4.91,0.16-6.55c0.47-4.52,0.78-7.61,3.04-9.31c2.21-1.68,5.25-1.24,6.94-0.82
				c2.79,0.64,6.11,1.62,9.71,3.19C107.53,115.96,110.23,117.51,112.44,118.94z"/>
		</g>
	</g>
	<g>
		<g>
			<path class="st2" d="M494.82,97.96c-0.16-8.88-5.21-13.9-14.28-14.18c-4.49-0.13-9.04-0.09-13.43-0.06
				c-4.02,0.03-8.03,0.03-12.02,0c-4.58,0-9.32-0.03-13.99,0.06c-9.48,0.22-14.78,5.3-14.97,14.37c-0.28,13.56-0.28,27.05,0,40.13
				c0.19,9.35,5.33,14.34,14.84,14.4c6.72,0.06,13.37,0.09,19.93,0.09c6.59,0,13.08-0.03,19.42-0.09c9.1-0.09,14.4-5.15,14.53-13.9
				C495.07,125.17,495.07,111.42,494.82,97.96z M490.36,138.72c-0.09,6.31-3.39,9.41-10.07,9.48c-12.65,0.13-25.86,0.13-39.29,0
				c-7.06-0.06-10.26-3.14-10.39-10.01c-0.28-13.02-0.28-26.45,0-39.94c0.13-6.65,3.48-9.82,10.57-9.98
				c2.54-0.06,5.11-0.09,7.66-0.09c2.07,0,4.17,0.03,6.21,0.03c2.04,0.03,4.08,0.03,6.12,0.03c1.98,0,3.95-0.03,5.96-0.03
				c4.36-0.03,8.85-0.06,13.27,0.06c6.65,0.19,9.82,3.29,9.95,9.79C490.58,111.45,490.62,125.13,490.36,138.72z"/>
		</g>
	</g>
	<g>
		<g>
			<path class="st5" d="M402.47,148.03c0-9.16,0-9.16,9.16-9.16c9.35,0,9.35,0,9.34,9.64c-0.02,8.84-0.02,8.84-9.5,8.83
				C402.47,157.35,402.47,157.35,402.47,148.03z"/>
		</g>
	</g>
	<g>
		<g>
			<path class="st2" d="M537.4,90.37l-0.03-2.45c0-9.13,0-13.71-2.7-16.54c-2.7-2.86-7.15-2.89-16.03-3.01h-0.47
				c-10.14-0.13-14.87,0.13-17.54,2.79c-2.42,2.42-2.35,5.99-2.26,11.89c0.03,1.47,0.03,3.17,0.03,5.02c0,1.35,0,2.57-0.03,3.7
				c-0.09,6.87-0.13,10.64,2.29,13.08c2.45,2.45,6.31,2.67,14.28,2.67h4.64c8.57-0.03,12.87-0.03,15.44-2.64
				C537.56,102.35,537.5,98.34,537.4,90.37z M531.85,101.76c-1.29,1.29-5.43,1.29-12.27,1.29h-1.98
				c-7.47,0.03-12.39,0.03-13.74-1.32c-1.1-1.13-1.07-4.61-1-9.88c0-1.16,0.03-2.38,0.03-3.73c0-1.91-0.03-3.61-0.03-5.11
				c-0.09-4.55-0.13-7.56,0.94-8.66c1.26-1.26,5.33-1.51,10.79-1.51c1.13,0,2.32,0.03,3.55,0.03h0.44
				c7.15,0.09,11.45,0.16,12.87,1.63c0.72,0.75,1.07,2.26,1.26,4.49c0.19,2.26,0.19,5.24,0.19,8.97c0,0.88,0.03,1.69,0.03,2.48
				C533.01,96.74,533.04,100.53,531.85,101.76z"/>
		</g>
	</g>
	<g>
		<g>
			<path class="st2" d="M488.33,63.48v-2.04c0-7.75,0-11.64-2.35-14.09c-2.38-2.51-6.18-2.54-13.71-2.64h-0.38
				c-8.6-0.13-12.61,0.09-14.97,2.42c-2.13,2.17-2.07,5.21-2.01,10.23c0.03,1.26,0.03,2.67,0.03,4.2c0,1.13,0,2.17-0.03,3.11
				c-0.06,5.84-0.09,9.07,2.04,11.23c2.13,2.13,5.46,2.32,12.3,2.32h3.8c7.28,0,10.95-0.03,13.21-2.32
				C488.45,73.67,488.42,70.25,488.33,63.48z M483.05,72.76c-0.94,0.97-4.55,0.97-10.01,0.97h-1.66c-5.93,0.03-10.23,0.03-11.23-1
				c-0.85-0.82-0.78-3.86-0.75-8.03c0-0.94,0.03-1.98,0.03-3.11c0-1.6,0-3.04-0.03-4.3c-0.06-3.58-0.09-6.18,0.69-7
				c0.97-0.94,4.42-1.13,8.82-1.13h2.92l0.38,0.03c5.68,0.06,9.44,0.09,10.51,1.22c1.13,1.16,1.13,5.08,1.13,11.01l0.03,2.07
				C483.9,68.34,483.96,71.85,483.05,72.76z"/>
		</g>
	</g>
	<g>
		<g>
			<path class="st2" d="M515.59,38.22c-1.95-1.95-4.83-1.95-10.57-1.95c-5.68,0-8.5,0-10.42,1.91c-0.94,0.97-1.44,2.17-1.66,3.8
				c-0.25,1.66-0.25,3.8-0.25,6.62c0,5.74,0,8.63,1.85,10.54c1.91,1.98,4.71,1.98,10.29,1.98h0.47c5.49,0,8.32-0.06,10.2-1.82
				c2.04-1.88,2.04-4.64,2.04-10.17C517.57,43.2,517.57,40.19,515.59,38.22z M513.05,49.14c0,3.39,0,6.34-0.6,6.9
				c-0.66,0.6-3.73,0.6-7.63,0.6c-3.48,0-6.5,0-7.06-0.6c-0.63-0.63-0.63-3.8-0.63-7.44c0-3.55,0-6.62,0.63-7.25
				c0.6-0.6,3.67-0.6,7.25-0.6c3.77,0,6.75,0,7.41,0.63C513.08,42.04,513.08,45.18,513.05,49.14z"/>
		</g>
	</g>
	<g>
		<g>
			<rect x="503.74" y="135.72" class="st6" width="34.44" height="136.1"/>
		</g>
	</g>
	<g>
		<g>
			<path class="st6" d="M647.88,97.11v56.95c-5.21-5.93-11.23-10.57-18.07-13.9c-6.84-3.33-14.43-4.99-22.78-4.99
				c-8.5,0-16.47,1.79-23.88,5.4c-7.4,3.61-13.84,8.53-19.3,14.72c-5.46,6.21-9.76,13.49-12.93,21.81
				c-3.14,8.35-4.71,17.32-4.71,26.95c0,9.44,1.57,18.33,4.71,26.67c3.17,8.32,7.47,15.53,12.93,21.65
				c5.46,6.12,11.89,10.98,19.3,14.59c7.41,3.61,15.38,5.4,23.88,5.4c8.35,0,15.94-1.6,22.78-4.86c6.84-3.23,12.87-7.81,18.07-13.74
				v18.07h34.7V97.11H647.88z M647.88,208.22c-0.56,4.24-1.82,8.13-3.77,11.64c-1.95,3.55-4.39,6.62-7.37,9.32
				c-2.95,2.7-6.37,4.77-10.26,6.24c-3.89,1.47-7.97,2.23-12.21,2.23c-4.83,0-9.23-0.88-13.21-2.64c-3.99-1.76-7.5-4.17-10.54-7.22
				c-3.08-3.08-5.43-6.62-7.09-10.7c-1.66-4.08-2.51-8.44-2.51-13.05c0-4.64,0.85-9.04,2.51-13.21c1.66-4.14,4.02-7.75,7.09-10.83
				c3.04-3.04,6.56-5.46,10.54-7.22c3.98-1.76,8.38-2.64,13.21-2.64c4.24,0,8.32,0.78,12.21,2.35c3.89,1.57,7.31,3.67,10.26,6.24
				c2.98,2.6,5.43,5.74,7.37,9.44s3.2,7.59,3.77,11.67V208.22z"/>
		</g>
	</g>
	<g>
		<g>
			<path class="st6" d="M784.41,230.03c-5.18,3.61-10.64,6.15-16.38,7.62c-3.51,0.94-7.03,1.19-10.54,0.85
				c-3.55-0.38-6.21-1.04-8.06-1.95l73.61-65.3c-8.35-13.15-18.01-22.44-29.03-27.9c-11.05-5.46-22.56-8.19-34.58-8.19
				c-9.44,0-18.36,1.79-26.67,5.4c-8.35,3.61-15.56,8.53-21.68,14.72c-6.09,6.21-10.95,13.49-14.56,21.81
				c-3.64,8.35-5.43,17.32-5.43,26.95c0,9.44,1.79,18.33,5.43,26.67c3.61,8.32,8.47,15.53,14.56,21.65
				c6.12,6.12,13.34,10.98,21.68,14.59c8.32,3.61,17.23,5.4,26.67,5.4c12.02,0,23.28-2.54,33.73-7.62
				c10.45-5.08,19.86-13.74,28.18-25.98l-23.31-22.5C794.14,221.81,789.59,226.39,784.41,230.03z M728.87,221
				c-2.04-2.04-3.58-5.05-4.58-9.04c-1.03-3.99-1.07-8.38-0.16-13.18c1.48-8.72,4.93-15.66,10.29-20.84
				c5.37-5.18,12.11-8.35,20.27-9.44c4.99-0.56,9.48-0.16,13.46,1.26c3.98,1.38,7.19,3.11,9.6,5.11L728.87,221z"/>
		</g>
	</g>
	<g>
		<g>
			<path class="st6" d="M973.03,131.05"/>
		</g>
	</g>
	<g>
		<g>
			<path class="st6" d="M917.89,216.19"/>
		</g>
	</g>
	<g>
		<g>
			<polygon class="st6" points="799.1,272.01 848.06,272.01 921.99,197.83 821.2,97.11 771.79,97.11 873.33,197.7 			"/>
		</g>
	</g>
	<g>
		<g>
			<polygon class="st2" points="913.36,237.54 937.66,213.25 1064.73,340.32 1016.72,341.3 			"/>
		</g>
	</g>
	<g>
		<g>
			<polygon class="st2" points="937.4,182.42 984.47,135.35 935.77,135.27 913,158.03 			"/>
		</g>
	</g>
	<g>
		<path class="st2" d="M650.52,286.17c-0.19-0.38-0.5-0.72-1-0.97c-0.47-0.25-1.16-0.38-2.04-0.38c-1.04,0.03-2.76,0.16-5.18,0.35
			c-1.47,0.13-3.11,0.28-4.9,0.47c-1.16,0.13-2.38,0.25-3.67,0.38c-0.72,0.09-1.44,0.16-2.2,0.25c-2.64,0.31-5.46,0.66-8.44,1.07
			c-3.8,0.53-7.59,1.1-11.42,1.69l1.95-6.75c0.16-0.5,0.06-0.91-0.28-1.22c-0.35-0.31-0.75-0.5-1.26-0.53
			c-0.47-0.06-0.94,0.03-1.38,0.31c-0.44,0.25-0.72,0.69-0.82,1.29c-0.41,2.35-1,4.86-1.69,7.53c-3.08,0.56-5.99,1.13-8.75,1.76
			c-2.76,0.63-5.24,1.26-7.44,1.91c-2.2,0.69-4.02,1.38-5.43,2.1c-1.41,0.72-2.32,1.44-2.7,2.2c-0.19,0.35-0.31,0.72-0.38,1.07
			c-0.09,0.38-0.13,0.69-0.09,1c0.03,0.31,0.13,0.56,0.25,0.78c0.16,0.19,0.38,0.31,0.69,0.35c0.13,0.03,0.5,0.28,1.13,0.72
			c0.6,0.44,1.35,1.1,2.2,1.98c0.88,0.88,1.79,1.95,2.79,3.23c1,1.26,1.95,2.7,2.86,4.33c0.91,1.6,1.73,3.39,2.42,5.37
			c0.72,1.98,1.22,4.11,1.54,6.37c-1.35,3.61-2.67,7-3.92,10.2c-1.29,3.2-2.42,5.99-3.42,8.44c-0.97,2.45-1.82,4.42-2.45,5.93
			c-0.66,1.51-1.07,2.35-1.19,2.57c-0.44,0.69-0.66,1.26-0.63,1.69c0.03,0.44,0.22,0.78,0.5,1.04c0.28,0.25,0.66,0.38,1.07,0.44
			c0.44,0.06,0.82,0,1.13-0.13c0.72-0.31,1.44-0.88,2.2-1.66s1.51-1.66,2.23-2.67c0.72-1,1.41-2.04,2.04-3.14
			c0.66-1.1,1.26-2.13,1.76-3.11c0.53-0.94,0.94-1.79,1.29-2.54c0.35-0.72,0.57-1.26,0.69-1.51c1-2.6,1.6-5.21,1.73-7.78
			c0.16-2.57-0.03-5.08-0.5-7.53c1.79-4.61,3.61-9.57,5.52-14.84c1.88-5.27,3.67-10.54,5.33-15.85c2.54-0.47,5.15-0.94,7.84-1.35
			c2.67-0.41,5.27-0.75,7.81-1.07c1.04-0.13,2.07-0.25,3.04-0.35c1.47-0.16,2.89-0.31,4.27-0.44c0.19,0,0.38-0.03,0.53-0.03
			c2.13-0.19,4.08-0.31,5.81-0.38c1.88-0.06,3.51-0.06,4.86,0c1.35,0.06,2.32,0.22,2.92,0.47c0.44,0.19,0.88,0.22,1.29,0.06
			c0.41-0.16,0.75-0.38,1.04-0.72c0.28-0.31,0.47-0.69,0.56-1.16C650.71,286.98,650.68,286.58,650.52,286.17z M596.11,336.15
			c-0.66,2.42-1.69,4.93-3.08,7.56c-0.47,0.91-0.91,1.54-1.26,1.95c-0.38,0.38-0.53,0.28-0.53-0.35c0-0.13,0.13-0.6,0.44-1.44
			c0.31-0.82,0.75-1.95,1.29-3.36c0.56-1.44,1.22-3.11,1.98-5.02c0.75-1.91,1.57-4.05,2.45-6.34
			C597.24,331.42,596.8,333.77,596.11,336.15z M603.36,305.72c-1.51,4.42-3.04,8.82-4.64,13.18c-0.85-2.6-1.85-5.05-3.04-7.31
			c-1.16-2.26-2.32-4.24-3.42-5.93c-1.1-1.66-2.01-3.01-2.79-4.02c-0.78-1.04-1.13-1.6-1.1-1.73c0.06-0.56,0.6-1.13,1.6-1.73
			c1.04-0.56,2.38-1.16,4.08-1.76c1.69-0.6,3.67-1.19,5.96-1.76c2.26-0.56,4.68-1.1,7.25-1.63
			C606.15,297.06,604.86,301.29,603.36,305.72z"/>
		<path class="st2" d="M641.33,322.6c-0.19-0.19-0.47-0.28-0.78-0.25c-0.09,0-0.22,0.03-0.31,0.09c-0.22,0.09-0.41,0.25-0.63,0.47
			c-0.22,0.25-0.69,0.75-1.44,1.51c-0.75,0.75-1.66,1.63-2.73,2.64c-1.07,0.97-2.23,2.04-3.45,3.17c-1.25,1.1-2.45,2.13-3.58,3.11
			c-1.16,0.94-2.2,1.79-3.11,2.48c-0.91,0.69-1.57,1.1-2.04,1.22c-0.22,0.06-0.44,0.13-0.63,0.16c-0.19,0.03-0.35,0-0.5-0.09
			c-0.13-0.06-0.22-0.25-0.22-0.5c-0.03-0.25,0.03-0.63,0.19-1.1c0.06-0.31,0.25-0.94,0.56-1.91c0.31-0.97,0.66-2.07,1.07-3.36
			c0.41-1.26,0.85-2.6,1.29-4.02c0.44-1.44,0.88-2.79,1.25-4.05c0.38-1.29,0.66-2.38,0.91-3.29c0.25-0.94,0.38-1.54,0.38-1.82
			c0-0.85-0.19-1.47-0.57-1.91c-0.35-0.41-0.91-0.5-1.66-0.35c-0.75,0.22-1.76,0.78-3.01,1.76c-1.25,0.94-2.6,2.1-4.02,3.45
			c-1.41,1.32-2.86,2.76-4.3,4.3s-2.73,2.95-3.86,4.3c1.19-2.64,2.57-5.46,4.11-8.44c1.54-3.01,3.26-6.09,5.11-9.32
			c1.88-3.2,3.95-6.5,6.18-9.85c2.26-3.36,4.68-6.75,7.25-10.14c0.47-0.63,0.91-1.19,1.35-1.69c0.38-0.5,0.75-0.91,1.1-1.29
			c0.69-0.75,1.32-1.41,1.88-1.95c0.09-0.09,0.19-0.19,0.28-0.28c0.44-0.44,0.82-0.85,1.16-1.22c0.41-0.5,0.78-1.07,1.13-1.73
			c0.41-0.78,0.56-1.44,0.47-2.01c-0.13-0.53-0.38-0.94-0.82-1.19c-0.41-0.25-0.94-0.35-1.57-0.28c-0.6,0.06-1.19,0.35-1.76,0.82
			c-0.5,0.41-1,0.94-1.51,1.63c-0.5,0.66-0.97,1.35-1.38,2.04c-0.44,0.69-0.85,1.32-1.19,1.91c-0.16,0.25-0.28,0.47-0.41,0.66
			c-0.19,0.28-0.31,0.53-0.44,0.72c-0.6,0.88-1.19,1.76-1.76,2.64c-4.99,7.41-9.1,14.03-12.39,19.86
			c-3.64,6.53-6.56,12.17-8.69,17.01c-2.13,4.8-3.7,8.79-4.64,11.99c-0.94,3.2-1.6,5.68-1.98,7.41c-0.13,0.66-0.06,1.13,0.22,1.41
			c0.25,0.25,0.6,0.38,0.94,0.35c0.35-0.03,0.69-0.19,0.97-0.47c0.28-0.31,0.41-0.72,0.35-1.22c0.06-0.47,0.16-1,0.28-1.51
			c0.13-0.53,0.25-1.1,0.44-1.69c0.72-1.79,1.66-3.64,2.89-5.62c1.19-1.95,2.48-3.86,3.86-5.77c1.38-1.88,2.76-3.67,4.2-5.33
			c1.41-1.69,2.73-3.14,3.89-4.36c1.19-1.22,2.2-2.13,3.01-2.79c0.78-0.63,1.29-0.85,1.44-0.69c0.13,0.16,0.03,0.63-0.22,1.41
			c-0.25,0.82-0.6,1.82-1.03,3.04c-0.44,1.22-0.91,2.57-1.44,4.08c-0.53,1.51-1,2.98-1.44,4.52c-0.44,1.51-0.75,2.95-0.94,4.3
			c-0.22,1.38-0.22,2.54-0.06,3.51c0.03,0.28,0.09,0.53,0.22,0.78c0.09,0.28,0.28,0.47,0.53,0.63c0.25,0.16,0.63,0.22,1.1,0.22
			c0.5-0.03,1.13-0.19,1.98-0.5c0.56-0.25,1.41-0.78,2.48-1.6c1.1-0.82,2.26-1.79,3.55-2.89c1.26-1.1,2.57-2.26,3.89-3.48
			c1.35-1.26,2.57-2.42,3.73-3.48c0.35-0.35,0.66-0.66,0.97-0.94c0.72-0.69,1.35-1.29,1.88-1.82c0.82-0.75,1.29-1.19,1.44-1.35
			c0.47-0.41,0.72-0.78,0.75-1.16C641.58,323.07,641.52,322.79,641.33,322.6z"/>
		<path class="st2" d="M661.06,323.07c-0.13-0.16-0.31-0.28-0.5-0.31c-0.19-0.03-0.38,0.06-0.56,0.28c-1,1-2.16,2.1-3.45,3.29
			c-1.29,1.16-2.64,2.32-4.02,3.51c-1.41,1.19-2.82,2.32-4.27,3.42c-1.41,1.1-2.76,2.1-4.02,2.98c-1.26,0.85-2.38,1.57-3.36,2.13
			c-1,0.6-1.79,0.91-2.32,1c-0.35,0.09-0.75,0-1.26-0.22c-0.47-0.22-0.72-0.82-0.75-1.79c-0.03-0.94,0.31-2.42,1.1-4.36
			c0.78-1.95,2.23-4.64,4.39-8.03c0.16-0.25,0.5-0.63,1.07-1.16c0.56-0.53,1.19-1.1,1.88-1.66c0.69-0.6,1.32-1.16,1.95-1.69
			c0.6-0.56,0.97-0.97,1.13-1.26c0.19-0.25,0.35-0.56,0.44-1c0.13-0.44,0.19-0.85,0.16-1.29c-0.06-0.44-0.19-0.82-0.47-1.13
			c-0.28-0.31-0.72-0.53-1.35-0.6c-0.66-0.06-1.29,0.13-1.88,0.53c-0.6,0.44-1.13,0.94-1.63,1.57c-0.47,0.6-0.91,1.22-1.29,1.85
			c-0.38,0.66-0.63,1.16-0.82,1.51c-0.09,0.22-0.34,0.66-0.75,1.35c-0.06,0.13-0.16,0.28-0.25,0.44c-0.31,0.6-0.72,1.29-1.16,2.1
			c-0.5,0.97-1.07,2.04-1.63,3.23c-0.03,0.03-0.03,0.09-0.06,0.13c-0.6,1.22-1.1,2.45-1.57,3.7c-0.47,1.26-0.85,2.48-1.13,3.67
			c-0.28,1.22-0.38,2.26-0.28,3.2c0.09,1.22,0.47,2.13,1.07,2.73c0.63,0.6,1.44,0.82,2.48,0.66c0.97-0.09,2.17-0.53,3.55-1.32
			c1.41-0.75,2.92-1.73,4.55-2.86c1.6-1.13,3.23-2.35,4.86-3.7c1.63-1.32,3.14-2.64,4.55-3.89c0.47-0.44,0.94-0.85,1.38-1.26
			c0.82-0.75,1.57-1.47,2.23-2.13c1-1,1.66-1.76,2.01-2.23c0.19-0.25,0.25-0.5,0.22-0.75C661.28,323.48,661.19,323.26,661.06,323.07
			z M658.24,305.15c-0.19-0.35-0.44-0.53-0.82-0.56c-0.35-0.03-0.72,0.03-1.16,0.16c-0.41,0.13-0.82,0.31-1.19,0.56
			c-0.41,0.25-0.72,0.47-1,0.66c-0.6,0.41-1.16,0.91-1.73,1.47c-0.56,0.56-1.1,1.13-1.57,1.69c-0.5,0.56-0.88,1.13-1.22,1.63
			c-0.31,0.5-0.5,0.94-0.6,1.22v0.41c0,0.19,0.06,0.35,0.16,0.5c0.13,0.16,0.25,0.28,0.47,0.38c0.22,0.06,0.5,0.06,0.88-0.03
			c0.6-0.13,1.26-0.41,2.01-0.88c0.75-0.47,1.51-1.04,2.23-1.69c0.72-0.63,1.38-1.29,1.98-2.01c0.6-0.69,1.04-1.32,1.32-1.91
			C658.27,306.06,658.37,305.53,658.24,305.15z"/>
		<path class="st2" d="M696.96,323.82c-0.22-0.22-0.47-0.31-0.82-0.31c-0.06,0-0.16,0.03-0.22,0.06c-0.28,0.09-0.6,0.31-0.88,0.69
			c-0.88,1.13-1.91,2.32-3.04,3.61c-1.16,1.26-2.35,2.54-3.61,3.77c-1.25,1.26-2.51,2.45-3.8,3.61c-1.26,1.13-2.45,2.13-3.55,3.01
			c-1.1,0.85-2.07,1.57-2.95,2.1c-0.85,0.53-1.51,0.78-1.95,0.78c-0.82,0.03-1.41-0.28-1.73-1c-0.31-0.69-0.5-1.57-0.5-2.6
			c-0.03-1.07,0.06-2.23,0.28-3.48c0.25-1.29,0.47-2.48,0.72-3.64c0.28-1.16,0.5-2.17,0.72-3.04c0.22-0.88,0.35-1.41,0.28-1.66
			c-0.06-0.72-0.25-1.38-0.53-1.98c-0.28-0.6-0.69-1.07-1.19-1.41c-0.47-0.31-1.07-0.47-1.73-0.47c-0.63,0-1.35,0.22-2.1,0.66
			c-0.38,0.22-0.85,0.53-1.41,1c-0.56,0.47-1.19,1-1.88,1.63c-0.69,0.63-1.41,1.29-2.16,2.01c-0.75,0.72-1.47,1.44-2.2,2.16
			c-1.69,1.66-3.48,3.55-5.43,5.55c-0.44,0.35-0.6,0.28-0.47-0.19c0.13-0.44,0.41-1.13,0.85-2.04c0.44-0.91,1-1.98,1.69-3.14
			c0.69-1.19,1.38-2.35,2.07-3.45c0.66-1.1,1.32-2.04,1.91-2.89c0.6-0.82,1.04-1.35,1.32-1.57c0.5-0.38,1.1-0.91,1.76-1.54
			c0.66-0.63,1.16-1.26,1.51-1.88c0.38-0.6,0.5-1.16,0.38-1.6c-0.13-0.47-0.69-0.75-1.73-0.82c-0.6-0.03-1.16,0.16-1.73,0.53
			c-0.56,0.38-1.1,0.82-1.6,1.38c-0.5,0.53-0.94,1.1-1.32,1.69c-0.38,0.6-0.63,1.1-0.78,1.51c-0.09,0.22-0.35,0.72-0.78,1.51
			c-0.13,0.22-0.22,0.41-0.38,0.66c-0.34,0.63-0.72,1.32-1.13,2.07c-0.6,1.04-1.22,2.2-1.88,3.42c-0.06,0.09-0.13,0.22-0.16,0.31
			c-0.63,1.16-1.16,2.23-1.66,3.26c-0.53,1.16-0.94,2.23-1.29,3.2c-0.31,0.97-0.44,1.76-0.38,2.29c0.03,0.25,0.13,0.47,0.28,0.72
			c0.16,0.25,0.35,0.44,0.63,0.6c0.25,0.16,0.53,0.22,0.85,0.22c0.28,0,0.63-0.13,1-0.35c0.25-0.19,0.69-0.6,1.35-1.26
			c0.66-0.69,1.44-1.47,2.32-2.45c0.88-0.94,1.88-1.91,2.95-2.98c1.03-1.04,2.1-2.01,3.17-2.92c1.07-0.91,2.07-1.69,3.04-2.35
			c0.97-0.66,1.79-1.04,2.48-1.13c0.75-0.09,1.16,0.25,1.19,1.1c0.06,0.85-0.03,1.95-0.28,3.29c-0.28,1.38-0.57,2.86-0.88,4.46
			c-0.35,1.63-0.5,3.14-0.47,4.55c0,1.41,0.31,2.57,0.88,3.55c0.56,0.97,1.63,1.44,3.17,1.51c0.85,0.03,1.98-0.41,3.36-1.32
			c1.41-0.88,2.89-2.01,4.46-3.36c1.6-1.35,3.2-2.82,4.83-4.39c1.63-1.6,3.08-3.08,4.39-4.46c0.03-0.03,0.06-0.06,0.09-0.09
			c1.29-1.32,2.32-2.45,3.14-3.33c0.88-0.94,1.32-1.41,1.35-1.44c0.31-0.31,0.47-0.66,0.47-1.04S697.18,324.04,696.96,323.82z"/>
		<path class="st2" d="M727.93,324.14c-0.22-0.19-0.5-0.28-0.82-0.25c-0.31,0-0.66,0.22-0.94,0.63c-0.16,0.22-0.6,0.69-1.38,1.44
			c-0.75,0.75-1.76,1.66-2.95,2.67c-1.22,1.04-2.6,2.13-4.14,3.29c-1.57,1.13-3.2,2.23-4.9,3.2c-1.69,1-3.45,1.85-5.24,2.54
			c-1.79,0.69-3.48,1.07-5.15,1.13c-1.63,0.06-2.86-0.6-3.64-1.98c-0.75-1.41-0.97-3.33-0.63-5.74c0.16-1.38,0.66-2.76,1.47-4.14
			c0.78-1.35,1.82-2.54,3.01-3.48c1.22-0.97,2.6-1.6,4.14-1.95c1.57-0.31,3.17-0.16,4.86,0.5c0.78,0.31,1.41,0.38,1.91,0.22
			c0.47-0.16,0.78-0.44,0.97-0.82c0.16-0.41,0.19-0.88,0.09-1.44c-0.09-0.56-0.31-1.1-0.66-1.57c-0.35-0.47-0.82-0.88-1.38-1.19
			c-0.56-0.31-1.19-0.44-1.91-0.35c-1.32,0.13-2.54,0.41-3.64,0.88c-1.13,0.44-2.16,0.97-3.11,1.57c-0.94,0.63-1.79,1.29-2.57,2.01
			c-0.75,0.72-1.44,1.44-2.01,2.17c1.16-2.32,2.48-4.8,3.92-7.41c1.47-2.6,2.98-5.3,4.58-8.1c1.6-2.76,3.26-5.59,4.96-8.47
			c1.69-2.86,3.39-5.71,5.11-8.57c0.09-0.16,0.41-0.56,0.94-1.16c0.5-0.6,1.1-1.32,1.73-2.17c0.66-0.85,1.29-1.73,1.91-2.64
			c0.63-0.94,1.07-1.82,1.35-2.67c0.28-0.85,0.28-1.57,0.06-2.2c-0.22-0.6-0.85-1-1.88-1.16c-0.6-0.13-1.19,0.19-1.76,0.88
			c-0.57,0.72-1.1,1.57-1.6,2.57c-0.5,0.97-0.94,1.98-1.38,2.95c-0.41,0.97-0.75,1.66-1,2.07c-0.94,1.41-2.07,3.23-3.36,5.46
			c-1.32,2.2-2.7,4.58-4.11,7.15c-1.44,2.54-2.89,5.15-4.33,7.78c-1.44,2.67-2.79,5.11-4.02,7.34c-1.19,2.26-2.23,4.17-3.11,5.74
			c-0.66,1.26-1.16,2.13-1.44,2.67c-0.06,0.16-0.13,0.28-0.19,0.38c-0.63,1.04-1.26,2.17-1.88,3.39c-0.56,1.07-1.07,2.13-1.54,3.2
			c-0.09,0.19-0.16,0.38-0.25,0.56c-0.53,1.29-1,2.51-1.38,3.7c-0.38,1.22-0.63,2.32-0.72,3.29c-0.09,1-0.03,1.85,0.25,2.57
			c0.28,0.69,0.78,1.16,1.54,1.35c0.66,0.19,1.13,0.13,1.41-0.13c0.31-0.25,0.5-0.6,0.56-1.07c0.09-0.44,0.13-0.91,0.09-1.44
			c-0.03-0.53-0.03-0.97,0.06-1.32c0.09-0.97,0.31-2.04,0.66-3.23c0.35-1.16,0.82-2.48,1.38-3.92c-0.13,0.91-0.22,1.95-0.22,3.11
			c-0.03,1.16,0.16,2.23,0.47,3.23c0.35,1.04,0.94,1.88,1.76,2.57c0.82,0.69,2.04,1.04,3.61,1.07c2.01,0.03,4.02-0.31,6.09-1.04
			c2.04-0.72,4.05-1.6,5.99-2.7c1.95-1.07,3.77-2.26,5.49-3.58c1.69-1.32,3.2-2.51,4.49-3.64c1.29-1.1,2.35-2.07,3.14-2.86
			c0.78-0.78,1.22-1.22,1.29-1.29c0.22-0.28,0.35-0.56,0.31-0.91C728.31,324.58,728.15,324.32,727.93,324.14z"/>
		<path class="st2" d="M725.33,334.21c-0.56,3.77-1.95,9.26-3.08,12.3l3.23-0.31c1.44-2.42,3.7-8.13,4.89-12.52L725.33,334.21z"/>
		<path class="st2" d="M792.7,323.41c-0.25-0.13-0.53-0.13-0.88-0.06c-0.09,0.03-0.16,0.06-0.22,0.09c-0.25,0.09-0.47,0.25-0.66,0.5
			c-0.94,1.19-2.04,2.23-3.2,3.08c-1.19,0.85-2.45,1.57-3.8,2.2c-1.35,0.6-2.73,1.1-4.17,1.51c-1.44,0.41-2.89,0.75-4.33,1.07
			c0.69-1.26,1.22-2.51,1.63-3.77c0.38-1.29,0.56-2.51,0.53-3.67c0-0.44-0.09-0.97-0.31-1.63c-0.19-0.66-0.53-1.29-0.97-1.88
			c-0.44-0.6-1.04-1.1-1.76-1.51c-0.72-0.38-1.6-0.56-2.6-0.47c-2.38,0.16-4.77,0.91-7.22,2.2c-2.45,1.32-4.86,3.01-7.28,5.11
			c0.38-2.01,0.72-4.02,1-6.06c0.25-2.04,0.47-4.11,0.6-6.21c0.03-0.44,0.06-1,0.06-1.73c0-0.69-0.06-1.38-0.16-2.04
			c-0.09-0.66-0.28-1.19-0.56-1.63c-0.28-0.44-0.66-0.63-1.19-0.56c-0.47,0.06-0.88,0.25-1.26,0.56c-0.35,0.31-0.63,0.66-0.85,1.1
			c-0.22,0.44-0.35,0.88-0.41,1.35c-0.06,0.44-0.06,0.88,0.03,1.32c0.13,0.38,0.19,0.85,0.25,1.47c0.03,0.63,0.09,1.26,0.09,1.88
			c0.03,0.63,0.03,1.26,0.06,1.85c0,0.6,0.03,1.07,0.03,1.41c0.03,1.73-0.09,3.48-0.31,5.27c-0.25,1.79-0.57,3.61-0.97,5.49
			c-2.64,2.73-5.08,5.71-7.41,9.01c-2.32,3.26-4.36,6.59-6.15,9.92c-1.79,3.33-3.26,6.56-4.39,9.73c-1.13,3.17-1.82,5.96-2.04,8.38
			c-0.06,0.94,0,1.73,0.25,2.42c0.25,0.66,0.63,1.13,1.16,1.38c0.53,0.25,1.19,0.22,1.98-0.06c0.78-0.31,1.69-1,2.73-2.01
			c0.63-0.63,1.6-2.04,2.95-4.24c1.38-2.2,2.86-4.99,4.49-8.38c1.63-3.39,3.26-7.25,4.93-11.61c1.63-4.36,3.04-9.01,4.24-13.9
			c2.35-2.26,4.77-4.14,7.22-5.62c2.45-1.47,4.9-2.35,7.28-2.64c0.56-0.03,1.03,0.09,1.47,0.31c0.44,0.25,0.78,0.56,1.1,0.97
			c0.28,0.44,0.5,0.88,0.63,1.38c0.16,0.5,0.19,0.94,0.16,1.35c-0.06,0.94-0.38,1.98-0.94,3.11c-0.57,1.13-1.29,2.26-2.13,3.36
			c-1.66,0.25-3.2,0.53-4.68,0.78c-1.44,0.25-2.76,0.6-3.89,0.97c-1.13,0.41-2.04,0.91-2.73,1.51c-0.69,0.6-1.07,1.35-1.19,2.29
			c-0.06,0.69,0,1.26,0.13,1.73c0.16,0.47,0.44,0.85,0.78,1.16c0.38,0.31,0.78,0.53,1.29,0.66c0.5,0.13,1.04,0.22,1.63,0.22
			c0.85,0,1.76-0.19,2.73-0.56c0.94-0.35,1.91-0.85,2.89-1.51c0.94-0.66,1.88-1.41,2.76-2.29c0.91-0.88,1.76-1.82,2.54-2.86
			c1.91-0.44,3.89-0.97,5.9-1.54c2.01-0.6,3.89-1.26,5.68-2.01c1.25-0.53,2.42-1.13,3.45-1.76c0.44-0.25,0.85-0.53,1.26-0.82
			c1.35-0.97,2.35-2.07,3.01-3.29c0.25-0.47,0.31-0.85,0.25-1.16C793.1,323.76,792.95,323.54,792.7,323.41z M749.83,342.4
			c-1.04,2.57-2.07,5.05-3.14,7.41c-1.1,2.38-2.17,4.58-3.23,6.62c-1.07,2.04-2.04,3.83-2.89,5.4c-0.85,1.57-1.57,2.86-2.17,3.83
			c-0.56,0.97-0.94,1.57-1.07,1.82c-0.19,0.25-0.38,0.19-0.6-0.13c-0.22-0.35-0.31-1.04-0.25-2.13c0.09-1.1,0.41-2.64,1-4.58
			c0.56-1.98,1.57-4.49,3.01-7.53c1.44-3.01,3.2-6.15,5.27-9.35c2.07-3.2,4.3-6.24,6.75-9.13
			C751.75,337.22,750.84,339.83,749.83,342.4z M765.8,338.01c-0.88,0.66-1.66,1.07-2.35,1.26c-0.56,0.16-0.97,0.16-1.29,0
			c-0.31-0.19-0.47-0.44-0.47-0.72c0-0.31,0.19-0.66,0.53-1c0.38-0.38,0.97-0.66,1.79-0.85c0.56-0.19,1.25-0.35,2.04-0.5
			c0.75-0.16,1.6-0.31,2.48-0.5C767.62,336.59,766.71,337.35,765.8,338.01z"/>
		<path class="st2" d="M813,323.07c-0.16-0.16-0.31-0.28-0.5-0.31s-0.38,0.06-0.6,0.28c-0.5,0.5-1,1.04-1.6,1.57
			c-0.56,0.56-1.16,1.13-1.82,1.73c-1.29,1.16-2.64,2.32-4.05,3.51c-1.41,1.19-2.82,2.32-4.24,3.42c-1.44,1.1-2.76,2.1-4.02,2.98
			c-1.26,0.85-2.38,1.57-3.39,2.13c-0.97,0.6-1.76,0.91-2.29,1c-0.35,0.09-0.78,0-1.26-0.22s-0.72-0.82-0.78-1.79
			c-0.03-0.94,0.35-2.42,1.13-4.36c0.75-1.95,2.23-4.64,4.39-8.03c0.13-0.25,0.5-0.63,1.07-1.16c0.56-0.53,1.19-1.1,1.88-1.66
			c0.69-0.6,1.32-1.16,1.91-1.69c0.6-0.56,1-0.97,1.16-1.26c0.19-0.25,0.31-0.56,0.44-1c0.13-0.44,0.16-0.85,0.13-1.29
			c-0.03-0.44-0.19-0.82-0.47-1.13c-0.25-0.31-0.72-0.53-1.32-0.6c-0.66-0.06-1.29,0.13-1.88,0.53c-0.6,0.44-1.16,0.94-1.63,1.57
			c-0.47,0.6-0.91,1.22-1.29,1.85c-0.38,0.66-0.66,1.16-0.82,1.51c-0.09,0.22-0.35,0.66-0.75,1.35c-0.25,0.41-0.53,0.91-0.82,1.44
			c-0.19,0.35-0.38,0.72-0.6,1.1c-0.56,1-1.13,2.13-1.69,3.36c-0.22,0.47-0.44,0.94-0.63,1.41c-0.38,0.75-0.66,1.51-0.94,2.29
			c-0.47,1.26-0.85,2.48-1.13,3.67c-0.31,1.22-0.41,2.26-0.28,3.2c0.09,1.22,0.44,2.13,1.07,2.73c0.63,0.6,1.44,0.82,2.48,0.66
			c0.94-0.09,2.13-0.53,3.55-1.32c1.41-0.75,2.92-1.73,4.52-2.86c1.63-1.13,3.26-2.35,4.89-3.7c1.63-1.32,3.14-2.64,4.55-3.89
			c0.16-0.16,0.31-0.28,0.47-0.44c1.22-1.07,2.26-2.07,3.14-2.95c0.97-1,1.66-1.76,2.01-2.23c0.16-0.25,0.25-0.5,0.22-0.75
			C813.22,323.48,813.12,323.26,813,323.07z M810.14,305.15c-0.16-0.35-0.41-0.53-0.78-0.56c-0.35-0.03-0.75,0.03-1.16,0.16
			c-0.41,0.13-0.82,0.31-1.19,0.56c-0.41,0.25-0.75,0.47-1,0.66c-0.6,0.41-1.16,0.91-1.73,1.47c-0.6,0.56-1.1,1.13-1.6,1.69
			c-0.47,0.56-0.88,1.13-1.19,1.63c-0.31,0.5-0.53,0.94-0.6,1.22v0.41c0,0.19,0.06,0.35,0.16,0.5c0.09,0.16,0.25,0.28,0.47,0.38
			c0.19,0.06,0.5,0.06,0.88-0.03c0.56-0.13,1.25-0.41,2.01-0.88c0.75-0.47,1.47-1.04,2.2-1.69c0.72-0.63,1.38-1.29,1.98-2.01
			c0.63-0.69,1.04-1.32,1.32-1.91C810.21,306.06,810.3,305.53,810.14,305.15z"/>
		<path class="st2" d="M841.02,323.54c-0.19-0.16-0.47-0.22-0.85-0.09h-0.03c-0.41,0.13-0.82,0.41-1.29,0.91
			c-0.16,0.16-0.56,0.53-1.29,1.19c-0.69,0.66-1.6,1.44-2.73,2.35c-1.13,0.91-2.45,1.85-3.92,2.89c-1.48,1-3.04,1.95-4.71,2.86
			c-1.66,0.88-3.39,1.63-5.18,2.23c-1.79,0.6-3.55,0.94-5.27,1c-1.51,0.06-2.79-0.25-3.86-0.91c-1.07-0.69-1.6-1.76-1.63-3.17
			c0-1.22,0.31-2.57,0.91-4.05c0.63-1.47,1.51-2.92,2.6-4.27c1.13-1.38,2.45-2.6,3.99-3.7c1.51-1.07,3.17-1.85,4.9-2.29
			c1.07-0.22,1.79-0.13,2.13,0.35c0.35,0.47,0.44,1.04,0.28,1.76s-0.5,1.47-1.04,2.2c-0.53,0.75-1.16,1.22-1.88,1.47
			c-0.57,0.16-0.85,0.53-0.88,1.07c-0.03,0.53,0.13,1,0.44,1.41c0.31,0.41,0.82,0.63,1.51,0.66c0.69,0.03,1.47-0.35,2.38-1.19
			c0.47-0.44,0.91-0.85,1.29-1.22c0.38-0.38,0.69-0.78,0.94-1.22c0.25-0.47,0.44-0.94,0.57-1.47c0.13-0.53,0.19-1.19,0.19-1.95
			c0-0.69-0.13-1.32-0.41-1.91c-0.28-0.6-0.66-1.13-1.16-1.57c-0.5-0.41-1.1-0.72-1.82-0.91c-0.72-0.19-1.51-0.22-2.38-0.09
			c-1.73,0.28-3.29,0.82-4.77,1.57c-1.44,0.75-2.76,1.63-3.92,2.67c-1.16,1.04-2.2,2.16-3.08,3.39c-0.28,0.38-0.53,0.75-0.75,1.13
			c-0.56,0.82-1.04,1.63-1.41,2.45c-0.44,0.91-0.78,1.79-1.04,2.6c-0.06,0.22-0.09,0.47-0.16,0.69c-0.25,1-0.35,1.88-0.25,2.57
			c0.03,0.38,0.09,0.91,0.19,1.6c0.09,0.72,0.38,1.44,0.85,2.17c0.47,0.69,1.19,1.32,2.16,1.85c0.97,0.53,2.38,0.82,4.21,0.85
			c2.45,0.06,4.93-0.44,7.5-1.44c2.54-1.04,4.99-2.26,7.31-3.7c2.32-1.47,4.42-3.01,6.31-4.61c0.53-0.44,1.07-0.88,1.54-1.32
			c1.19-1,2.16-1.91,2.95-2.7c0.44-0.47,0.69-0.88,0.75-1.26C841.27,323.98,841.21,323.7,841.02,323.54z"/>
		<path class="st2" d="M872.08,324.14c-0.22-0.19-0.5-0.28-0.82-0.25c-0.35,0-0.66,0.22-0.97,0.63c-0.13,0.22-0.56,0.69-1.35,1.44
			c-0.78,0.75-1.76,1.66-2.95,2.67c-1.22,1.04-2.6,2.13-4.17,3.29c-1.54,1.13-3.17,2.23-4.86,3.2c-1.73,1-3.45,1.85-5.24,2.54
			c-1.79,0.69-3.51,1.07-5.15,1.13c-1.66,0.06-2.86-0.6-3.64-1.98c-0.75-1.41-0.97-3.33-0.63-5.74c0.16-1.38,0.66-2.76,1.44-4.14
			c0.82-1.35,1.82-2.54,3.04-3.48c1.22-0.97,2.6-1.6,4.14-1.95c1.57-0.31,3.17-0.16,4.86,0.5c0.78,0.31,1.41,0.38,1.88,0.22
			c0.5-0.16,0.82-0.44,1-0.82c0.16-0.41,0.19-0.88,0.09-1.44s-0.35-1.1-0.69-1.57c-0.31-0.47-0.78-0.88-1.35-1.19
			c-0.56-0.31-1.22-0.44-1.95-0.35c-1.29,0.13-2.51,0.41-3.61,0.88c-1.13,0.44-2.17,0.97-3.11,1.57c-0.94,0.63-1.79,1.29-2.57,2.01
			c-0.75,0.72-1.44,1.44-2.04,2.17c1.19-2.32,2.48-4.8,3.95-7.41c1.44-2.6,2.98-5.3,4.58-8.1c1.6-2.76,3.23-5.59,4.96-8.47
			c1.69-2.86,3.39-5.71,5.12-8.57c0.09-0.16,0.41-0.56,0.91-1.16c0.53-0.6,1.1-1.32,1.76-2.17c0.66-0.85,1.29-1.73,1.91-2.64
			c0.63-0.94,1.07-1.82,1.35-2.67c0.25-0.85,0.28-1.57,0.06-2.2c-0.22-0.6-0.85-1-1.88-1.16c-0.63-0.13-1.19,0.19-1.76,0.88
			c-0.6,0.72-1.1,1.57-1.6,2.57c-0.5,0.97-0.97,1.98-1.38,2.95c-0.41,0.97-0.75,1.66-1.04,2.07c-0.91,1.41-2.04,3.23-3.33,5.46
			c-1.32,2.2-2.7,4.58-4.14,7.15c-1.44,2.54-2.89,5.15-4.3,7.78c-1.44,2.67-2.79,5.11-4.02,7.34c-1.22,2.26-2.26,4.17-3.11,5.74
			c-0.63,1.16-1.07,2.01-1.38,2.54c-0.13,0.22-0.22,0.38-0.28,0.5c-0.6,1.04-1.22,2.17-1.85,3.39c-0.16,0.31-0.35,0.66-0.5,0.97
			c-0.47,0.94-0.88,1.85-1.29,2.79c-0.57,1.29-1,2.51-1.38,3.7c-0.38,1.22-0.63,2.32-0.72,3.29c-0.13,1-0.03,1.85,0.25,2.57
			c0.28,0.69,0.78,1.16,1.54,1.35c0.66,0.19,1.13,0.13,1.41-0.13c0.31-0.25,0.5-0.6,0.57-1.07c0.09-0.44,0.13-0.91,0.09-1.44
			c-0.03-0.53-0.03-0.97,0.03-1.32c0.13-0.97,0.35-2.04,0.69-3.23c0.35-1.16,0.78-2.48,1.38-3.92c-0.13,0.91-0.22,1.95-0.22,3.11
			c-0.03,1.16,0.13,2.23,0.47,3.23c0.35,1.04,0.94,1.88,1.76,2.57c0.82,0.69,2.04,1.04,3.61,1.07c1.98,0.03,4.02-0.31,6.09-1.04
			c2.04-0.72,4.05-1.6,5.99-2.7c1.95-1.07,3.77-2.26,5.49-3.58c1.69-1.32,3.2-2.51,4.49-3.64c1.29-1.1,2.32-2.07,3.14-2.86
			c0.78-0.78,1.19-1.22,1.29-1.29c0.22-0.28,0.31-0.56,0.28-0.91C872.43,324.58,872.3,324.32,872.08,324.14z"/>
		<path class="st2" d="M920.22,323.82c-0.09-0.25-0.28-0.47-0.53-0.66c-0.22-0.16-0.5-0.25-0.78-0.28c-0.25,0-0.5,0.06-0.69,0.25
			c-0.03,0-0.03,0-0.06,0.03c-0.75,0.91-1.73,1.91-2.89,3.01c-1.16,1.1-2.38,2.17-3.7,3.26c-1.32,1.07-2.6,2.1-3.92,3.04
			c-1.35,0.94-2.54,1.69-3.61,2.23c-1.1,0.56-2.01,0.88-2.73,0.94c-0.69,0.06-1.13-0.25-1.26-0.91c-0.13-0.66,0.16-1.76,0.78-3.29
			c0.63-1.54,1.76-3.61,3.36-6.21c0.16-0.19,0.53-0.63,1.19-1.26c0.66-0.63,1.38-1.35,2.2-2.13c0.82-0.78,1.57-1.6,2.32-2.45
			c0.72-0.85,1.29-1.57,1.6-2.2c0.16-0.28,0.25-0.63,0.34-1.04c0.09-0.41,0.09-0.78-0.03-1.16c-0.09-0.35-0.31-0.63-0.6-0.88
			c-0.31-0.22-0.82-0.28-1.44-0.16c-0.44,0.06-0.85,0.28-1.26,0.63c-0.41,0.38-0.82,0.82-1.22,1.38c-0.41,0.53-0.85,1.16-1.29,1.88
			c-0.44,0.72-0.94,1.47-1.44,2.23c-0.28,0.38-0.53,0.72-0.75,1.07c-0.22,0.31-0.44,0.66-0.63,1c-0.44,0.5-1.07,1.35-1.88,2.48
			c-0.85,1.16-1.79,2.38-2.82,3.7c-1.03,1.29-2.07,2.57-3.14,3.8c-1.07,1.22-2.04,2.2-2.92,2.89c-0.44,0.31-0.97,0.69-1.63,1.19
			c-0.69,0.47-1.35,0.85-1.98,1.1c-0.66,0.25-1.22,0.31-1.73,0.16c-0.47-0.16-0.72-0.72-0.75-1.66c0-0.31,0.16-0.85,0.44-1.57
			c0.28-0.75,0.69-1.6,1.19-2.6c0.53-0.97,1.13-2.01,1.82-3.11c0.69-1.1,1.38-2.16,2.1-3.23c0.72-1.07,1.44-2.07,2.2-2.98
			c0.72-0.91,1.44-1.63,2.07-2.23c0.41-0.38,0.82-0.88,1.19-1.47c0.38-0.6,0.66-1.19,0.85-1.76c0.19-0.6,0.25-1.1,0.16-1.57
			c-0.09-0.44-0.35-0.72-0.78-0.82c-0.63-0.13-1.22-0.03-1.85,0.31c-0.6,0.35-1.16,0.85-1.73,1.47c-0.53,0.63-1.07,1.38-1.57,2.23
			c-0.53,0.88-1,1.76-1.44,2.67c-0.16,0.28-0.44,0.78-0.88,1.51c-0.47,0.72-0.94,1.57-1.51,2.54c-0.53,0.94-1.13,2.01-1.73,3.14
			c-0.6,1.13-1.13,2.26-1.57,3.36c-0.44,1.13-0.78,2.2-1.04,3.2c-0.22,1-0.28,1.88-0.09,2.64c0.16,0.75,0.57,1.35,1.19,1.73
			c0.66,0.38,1.63,0.47,2.92,0.28c0.63-0.06,1.32-0.31,2.1-0.72c0.75-0.44,1.57-1,2.42-1.69c0.85-0.69,1.73-1.44,2.64-2.32
			c0.91-0.88,1.79-1.79,2.64-2.73c-0.53,1.79-0.66,3.14-0.35,4.05c0.35,0.91,1,1.44,2.01,1.57c0.97,0.16,2.26-0.06,3.77-0.63
			c1.54-0.56,3.2-1.44,5.02-2.57c1.82-1.16,3.73-2.57,5.71-4.27c1.16-1,2.29-2.04,3.42-3.17c0.82-0.82,1.6-1.66,2.42-2.54
			C920.25,324.32,920.31,324.07,920.22,323.82z"/>
		<path class="st2" d="M956.43,324.04c-0.06-0.28-0.25-0.5-0.47-0.63c-0.25-0.13-0.53-0.13-0.88-0.06c-0.35,0.09-0.63,0.28-0.88,0.6
			c-0.22,0.25-0.44,0.53-0.66,0.78c-0.78,0.85-1.63,1.63-2.57,2.29c-1.16,0.85-2.45,1.57-3.77,2.2c-1.35,0.6-2.73,1.1-4.17,1.51
			c-1.44,0.41-2.89,0.75-4.33,1.07c0.69-1.26,1.22-2.51,1.63-3.77c0.38-1.29,0.56-2.51,0.53-3.67c0-0.44-0.09-0.97-0.31-1.63
			c-0.19-0.66-0.53-1.29-0.97-1.88c-0.44-0.6-1.04-1.1-1.76-1.51c-0.72-0.38-1.6-0.56-2.64-0.47c-2.35,0.16-4.77,0.91-7.19,2.2
			c-2.45,1.32-4.86,3.01-7.28,5.11c0.38-2.01,0.72-4.02,0.97-6.06c0.28-2.04,0.5-4.11,0.63-6.21c0.03-0.44,0.06-1,0.06-1.73
			c0-0.69-0.06-1.38-0.16-2.04c-0.13-0.66-0.31-1.19-0.56-1.63c-0.28-0.44-0.69-0.63-1.19-0.56c-0.47,0.06-0.91,0.25-1.25,0.56
			c-0.38,0.31-0.66,0.66-0.85,1.1c-0.22,0.44-0.35,0.88-0.41,1.35c-0.09,0.44-0.06,0.88,0.03,1.32c0.09,0.38,0.19,0.85,0.25,1.47
			c0.03,0.63,0.06,1.26,0.09,1.88c0,0.63,0.03,1.26,0.06,1.85v1.41c0.03,1.38-0.03,2.79-0.19,4.24c-0.03,0.35-0.06,0.69-0.13,1.04
			c-0.13,0.94-0.28,1.91-0.44,2.89c-0.16,0.85-0.35,1.73-0.53,2.6c-2.6,2.73-5.05,5.71-7.37,9.01c-2.32,3.26-4.36,6.59-6.15,9.92
			c-1.79,3.33-3.26,6.56-4.39,9.73c-1.13,3.17-1.82,5.96-2.07,8.38c-0.06,0.94,0.03,1.73,0.28,2.42c0.22,0.66,0.63,1.13,1.16,1.38
			c0.53,0.25,1.19,0.22,1.98-0.06c0.78-0.31,1.69-1,2.73-2.01c0.6-0.63,1.6-2.04,2.95-4.24s2.86-4.99,4.49-8.38
			c1.63-3.39,3.26-7.25,4.93-11.61c1.63-4.36,3.04-9.01,4.2-13.9c2.38-2.26,4.8-4.14,7.25-5.62c2.45-1.47,4.89-2.35,7.28-2.64
			c0.57-0.03,1.04,0.09,1.48,0.31c0.44,0.25,0.78,0.56,1.07,0.97c0.31,0.44,0.53,0.88,0.66,1.38c0.13,0.5,0.19,0.94,0.16,1.35
			c-0.06,0.94-0.41,1.98-0.97,3.11c-0.57,1.13-1.26,2.26-2.13,3.36c-1.63,0.25-3.2,0.53-4.64,0.78c-1.47,0.25-2.76,0.6-3.89,0.97
			c-1.13,0.41-2.04,0.91-2.73,1.51c-0.69,0.6-1.1,1.35-1.19,2.29c-0.06,0.69-0.03,1.26,0.13,1.73c0.16,0.47,0.41,0.85,0.78,1.16
			c0.35,0.31,0.78,0.53,1.29,0.66c0.5,0.13,1.04,0.22,1.63,0.22c0.85,0,1.76-0.19,2.73-0.56c0.94-0.35,1.91-0.85,2.86-1.51
			c0.97-0.66,1.91-1.41,2.79-2.29c0.91-0.88,1.73-1.82,2.54-2.86c1.91-0.44,3.86-0.97,5.87-1.54c2.01-0.6,3.92-1.26,5.71-2.01
			c1.79-0.75,3.36-1.63,4.71-2.57c0.16-0.09,0.28-0.22,0.44-0.35c1.13-0.88,1.98-1.85,2.57-2.95
			C956.46,324.73,956.52,324.36,956.43,324.04z M913.06,342.4c-1,2.57-2.04,5.05-3.14,7.41c-1.07,2.38-2.13,4.58-3.2,6.62
			c-1.07,2.04-2.04,3.83-2.89,5.4c-0.88,1.57-1.57,2.86-2.17,3.83c-0.6,0.97-0.94,1.57-1.1,1.82c-0.16,0.25-0.35,0.19-0.57-0.13
			c-0.25-0.35-0.31-1.04-0.25-2.13c0.06-1.1,0.41-2.64,0.97-4.58c0.6-1.98,1.6-4.49,3.04-7.53c1.44-3.01,3.2-6.15,5.27-9.35
			c2.04-3.2,4.3-6.24,6.75-9.13C914.98,337.22,914.1,339.83,913.06,342.4z M929.07,338.01c-0.88,0.66-1.69,1.07-2.35,1.26
			c-0.56,0.16-1,0.16-1.29,0c-0.31-0.19-0.47-0.44-0.47-0.72c0-0.31,0.16-0.66,0.53-1c0.35-0.38,0.94-0.66,1.79-0.85
			c0.57-0.19,1.26-0.35,2.01-0.5c0.78-0.16,1.63-0.31,2.51-0.5C930.89,336.59,929.98,337.35,929.07,338.01z"/>
		<path class="st2" d="M955.43,334.37c-1.73,0-3.01,1.32-3.01,3.17c0,1.82,1.22,3.2,3.01,3.2c1.88,0,3.04-1.38,3.04-3.2
			C958.47,335.68,957.31,334.37,955.43,334.37z M952.98,305.47l0.56,19.27l0.09,3.42l0.06,2.04h3.48l0.72-24.73H952.98z"/>
	</g>
	<path class="st6" d="M492.07,156.9L492.07,156.9c0.01-1.39,0.02-2.79,0.03-4.18c-0.47,0.54-1.22,1.3-2.3,1.98
		c-1.11,0.7-2.38,1.19-4.9,1.63c-3.39,0.59-5.97,0.54-5.97,0.57h-22.96c0.02,0.46,0.03,0.92,0.03,1.38c0,5-0.97,9.68-2.92,14.03
		c-1.94,4.35-4.58,8.19-7.91,11.53c-3.33,3.33-7.27,5.97-11.81,7.92c-4.54,1.94-9.3,2.92-14.3,2.92h-23.89v-73.33h23.89
		c0.89,0,1.77,0.04,2.65,0.1V96.07l0,0c0.04,0,0.06-0.39,0.09-0.76c0.31-3.33,1.86-5.91,2.46-6.82c0.62-0.94,1.66-2.28,3.31-3.57
		c-2.09,0.03-4.17,0.07-6.26,0.1c0,0,0,0,0,0c-0.79-0.03-1.58-0.06-2.38-0.06h-59.87v186.1h36.11v-40H419
		c10.15,0,19.66-1.9,28.53-5.7c8.86-3.79,16.62-8.98,23.27-15.55c6.64-6.57,11.86-14.26,15.64-23.05
		c3.78-8.79,5.68-18.19,5.68-28.19C492.11,158.01,492.09,157.46,492.07,156.9z"/>
</g>
</svg>
